<?xml version="1.0" encoding="utf-8"?>
<svg viewBox="0 0 16 16" fill="currentColor" xmlns="http://www.w3.org/2000/svg">
  <path fill-rule="evenodd" d="M 14 4.5 L 14 11 L 13 11 L 13 4.5 L 11 4.5 C 10.172 4.5 9.5 3.828 9.5 3 L 9.5 1 L 4 1 C 3.448 1 3 1.448 3 2 L 3 11 L 2 11 L 2 2 C 2 0.895 2.895 0 4 0 L 9.5 0 L 14 4.5 Z" style="fill: rgb(0, 0, 0); pointer-events: none;" transform="matrix(1, 0, 0, 1, 0, -1.1102230246251565e-16)"/>
  <path d="M 6.427 13.355 Q 6.427 13.721 6.335 14.021 Q 6.244 14.321 6.059 14.536 Q 5.875 14.75 5.596 14.869 Q 5.317 14.987 4.939 14.987 Q 4.768 14.987 4.601 14.969 Q 4.435 14.951 4.255 14.909 L 4.309 14.318 Q 4.315 14.24 4.37 14.192 Q 4.426 14.144 4.525 14.144 Q 4.576 14.144 4.651 14.161 Q 4.726 14.177 4.831 14.177 Q 4.978 14.177 5.087 14.137 Q 5.197 14.096 5.269 14.002 Q 5.341 13.907 5.377 13.754 Q 5.413 13.601 5.413 13.376 L 5.413 10.568 L 6.427 10.568 Z" transform="matrix(1, 0, 0, 1, -4.207, 0.993907)" style="fill: rgb(0, 0, 0); white-space: pre;"/>
  <path d="M 8.159 13.478 L 8.159 14.939 L 7.145 14.939 L 7.145 10.568 L 8.687 10.568 Q 9.149 10.568 9.481 10.678 Q 9.812 10.787 10.027 10.979 Q 10.241 11.171 10.343 11.432 Q 10.445 11.693 10.445 11.996 Q 10.445 12.323 10.34 12.596 Q 10.235 12.869 10.019 13.064 Q 9.803 13.259 9.472 13.369 Q 9.14 13.478 8.687 13.478 Z M 8.159 12.713 L 8.687 12.713 Q 9.083 12.713 9.257 12.524 Q 9.431 12.335 9.431 11.996 Q 9.431 11.846 9.386 11.723 Q 9.341 11.6 9.25 11.512 Q 9.158 11.423 9.019 11.375 Q 8.879 11.327 8.687 11.327 L 8.159 11.327 Z" transform="matrix(1, 0, 0, 1, -4.207, 0.993907)" style="fill: rgb(0, 0, 0); white-space: pre;"/>
  <path d="M 13.787 10.568 L 13.787 11.348 L 11.993 11.348 L 11.993 12.368 L 13.367 12.368 L 13.367 13.118 L 11.993 13.118 L 11.993 14.159 L 13.787 14.159 L 13.787 14.939 L 10.973 14.939 L 10.973 10.568 Z" transform="matrix(1, 0, 0, 1, -4.207, 0.993907)" style="fill: rgb(0, 0, 0); white-space: pre;"/>
  <path d="M 16.422 14.207 Q 16.632 14.207 16.794 14.171 Q 16.956 14.135 17.1 14.075 L 17.1 13.412 L 16.668 13.412 Q 16.572 13.412 16.518 13.361 Q 16.464 13.31 16.464 13.232 L 16.464 12.674 L 18.018 12.674 L 18.018 14.519 Q 17.85 14.642 17.668 14.731 Q 17.487 14.819 17.281 14.876 Q 17.076 14.933 16.843 14.96 Q 16.611 14.987 16.344 14.987 Q 15.864 14.987 15.456 14.818 Q 15.048 14.648 14.749 14.35 Q 14.451 14.051 14.281 13.642 Q 14.112 13.232 14.112 12.752 Q 14.112 12.263 14.274 11.854 Q 14.436 11.444 14.737 11.147 Q 15.039 10.85 15.466 10.685 Q 15.894 10.52 16.422 10.52 Q 16.695 10.52 16.935 10.565 Q 17.175 10.61 17.377 10.688 Q 17.58 10.766 17.748 10.874 Q 17.916 10.982 18.048 11.108 L 17.754 11.555 Q 17.712 11.618 17.653 11.654 Q 17.595 11.69 17.526 11.69 Q 17.436 11.69 17.34 11.63 Q 17.22 11.558 17.113 11.506 Q 17.007 11.453 16.896 11.42 Q 16.785 11.387 16.662 11.372 Q 16.539 11.357 16.386 11.357 Q 16.101 11.357 15.873 11.458 Q 15.645 11.558 15.484 11.741 Q 15.324 11.924 15.237 12.181 Q 15.15 12.437 15.15 12.752 Q 15.15 13.1 15.246 13.37 Q 15.342 13.64 15.511 13.826 Q 15.681 14.012 15.913 14.11 Q 16.146 14.207 16.422 14.207 Z" transform="matrix(1, 0, 0, 1, -4.207, 0.993907)" style="fill: rgb(0, 0, 0); white-space: pre;"/>
</svg>